HIERARCHY
ROOT Hips
{
	OFFSET 0.0000 0.0000 0.0000
	CHANNELS 6 Xposition Yposition Zposition Zrotation Xrotation Yrotation
	JOINT Ab
	{
		OFFSET -0.0000 8.1305 -0.0000
		CHANNELS 3 Zrotation Xrotation Yrotation
		JOINT Chest
		{
			OFFSET -0.0000 26.2902 -0.0000
			CHANNELS 3 Zrotation Xrotation Yrotation
			JOINT Neck
			{
				OFFSET -0.0000 26.2902 0.0000
				CHANNELS 3 Zrotation Xrotation Yrotation
				JOINT Head
				{
					OFFSET -0.0000 10.8167 0.0000
					CHANNELS 3 Zrotation Xrotation Yrotation
					End Site
					{
						OFFSET -0.0000 16.7167 0.0000
					}
				}
			}
			JOINT LeftCollar
			{
				OFFSET -0.0000 26.2902 0.0000
				CHANNELS 3 Zrotation Xrotation Yrotation
				JOINT LeftShoulder
				{
					OFFSET 19.6667 -0.0000 0.0000
					CHANNELS 3 Zrotation Xrotation Yrotation
					JOINT LeftElbow
					{
						OFFSET 27.2190 0.0000 0.0000
						CHANNELS 3 Zrotation Xrotation Yrotation
						JOINT LeftWrist
						{
							OFFSET 30.7431 0.0000 0.0000
							CHANNELS 3 Zrotation Xrotation Yrotation
							End Site
							{
								OFFSET 0.0000 -14.7500 0.0000
							}
						}
					}
				}
			}
			JOINT RightCollar
			{
				OFFSET -0.0000 26.2902 0.0000
				CHANNELS 3 Zrotation Xrotation Yrotation
				JOINT RightShoulder
				{
					OFFSET -19.6667 0.0000 0.0000
					CHANNELS 3 Zrotation Xrotation Yrotation
					JOINT RightElbow
					{
						OFFSET -27.2190 0.0000 0.0000
						CHANNELS 3 Zrotation Xrotation Yrotation
						JOINT RightWrist
						{
							OFFSET -30.7431 0.0000 0.0000
							CHANNELS 3 Zrotation Xrotation Yrotation
							End Site
							{
								OFFSET -0.0000 -14.7500 0.0000
							}
						}
					}
				}
			}
		}
	}
	JOINT LeftHip
	{
		OFFSET 11.8000 0.0000 0.0000
		CHANNELS 3 Zrotation Xrotation Yrotation
		JOINT LeftKnee
		{
			OFFSET -0.0000 -39.7832 0.0000
			CHANNELS 3 Zrotation Xrotation Yrotation
			JOINT LeftAnkle
			{
				OFFSET -0.0000 -41.7317 0.0000
				CHANNELS 3 Zrotation Xrotation Yrotation
				End Site
				{
					OFFSET -0.0000 -4.9167 16.7167
				}
			}
		}
	}
	JOINT RightHip
	{
		OFFSET -11.8000 0.0000 0.0000
		CHANNELS 3 Zrotation Xrotation Yrotation
		JOINT RightKnee
		{
			OFFSET -0.0000 -39.7832 0.0000
			CHANNELS 3 Zrotation Xrotation Yrotation
			JOINT RightAnkle
			{
				OFFSET -0.0000 -41.7317 0.0000
				CHANNELS 3 Zrotation Xrotation Yrotation
				End Site
				{
					OFFSET -0.0000 -4.9167 16.7167
				}
			}
		}
	}
}
MOTION
Frames: 15
Frame Time: 0.010000
-17.5774 96.8502 175.9756 358.1866 356.6670 180.8783 357.2645 347.6999 359.9179 2.5827 11.7963 359.9492 355.7860 0.5125 359.8086 3.7465 6.5905 359.5756 340.0872 357.3839 14.8962 322.6680 61.5337 334.3172 8.4652 357.4532 326.3238 89.0959 355.4905 347.8919 26.4249 355.8534 342.5264 45.2275 51.2926 5.9176 340.3514 354.4119 31.5656 270.4093 354.1822 8.8626 355.8042 1.6647 359.3563 357.7978 6.7374 4.4451 354.1657 352.1484 13.2063 357.4287 3.9153 10.6031 6.8917 7.7814 12.0930 348.1867 344.1866 310.1205 
-17.6177 96.8449 175.9680 358.1948 356.6318 180.8727 357.2543 347.7208 359.9215 2.5560 11.8150 359.9514 355.8036 0.5219 359.8232 3.7414 6.6853 359.5835 340.1180 357.3914 14.8863 322.6082 61.5436 334.3243 8.5277 357.4341 326.3648 89.1179 355.4830 347.9058 26.4124 355.8653 342.5100 45.2336 51.3392 5.9649 340.3732 354.3898 31.5849 270.4124 354.2352 8.7359 355.7837 1.6303 359.3307 357.7964 6.7487 4.4579 354.2606 352.1352 13.2305 357.4045 3.8507 10.5709 6.9112 7.8446 12.1050 348.1736 344.1731 310.1421 
-17.6616 96.8390 175.9599 358.2044 356.5961 180.8696 357.2345 347.7379 359.9244 2.5514 11.8526 359.9502 355.8309 0.5256 359.8220 3.6991 6.7755 359.5795 340.1374 357.3664 14.8783 322.5048 61.5364 334.4213 8.5756 357.3909 326.3573 89.1214 355.4977 347.8620 26.3898 355.8459 342.5193 45.2573 51.3746 5.9647 340.3437 354.3591 31.5898 270.6019 354.1939 8.8986 355.7618 1.5916 359.2949 357.7961 6.7695 4.4778 354.2749 352.1203 13.2324 357.3780 3.8069 10.6314 6.9361 7.8602 12.0418 348.1806 344.1540 310.1398 
-17.7022 96.8331 175.9528 358.2129 356.5536 180.8545 357.2171 347.7423 359.9272 2.5264 11.9073 359.9674 355.9510 0.4637 359.7974 3.5155 6.9500 359.5650 340.1494 357.3696 14.8650 322.4898 61.4887 334.4554 8.5195 357.4091 326.3133 89.5575 355.5564 348.0688 26.3873 355.8792 342.5441 45.2870 51.3341 5.9373 340.3987 354.3863 31.6657 270.6206 354.2178 8.9246 355.7516 1.5447 359.2553 357.7711 6.7890 4.5107 353.9829 352.0725 13.2445 357.3580 3.7275 10.6182 6.9504 7.9383 12.0442 348.2065 344.0967 310.1427 
-17.7464 96.8289 175.9473 358.2180 356.5042 180.8405 357.1825 347.7492 359.9439 2.5344 11.9426 359.9821 355.9672 0.4858 359.7904 3.4853 7.0170 359.5619 340.1348 357.3725 14.8746 322.6474 61.5117 334.3064 8.5033 357.4404 326.3406 89.6737 355.5671 348.1559 26.3571 355.8813 342.5710 45.3389 51.3267 5.9130 340.3315 354.3678 31.6969 270.6995 354.2225 8.9017 355.7205 1.4737 359.2274 357.7798 6.8417 4.5447 354.3030 352.0564 13.2380 357.3243 3.6427 10.6241 6.9804 8.0075 12.0594 348.2097 344.0624 310.1164 
-17.7907 96.8260 175.9381 358.2308 356.4599 180.8201 357.1580 347.7518 359.9600 2.5263 11.9903 359.9954 355.9961 0.5105 359.7818 3.4712 7.0796 359.5542 340.1196 357.3776 14.8764 322.7549 61.4809 334.2093 8.4601 357.4366 326.3512 89.6458 355.5668 348.0827 26.3550 355.9093 342.5974 45.3625 51.2599 5.8999 340.3841 354.3827 31.7357 270.7323 354.1905 8.9843 355.6147 1.2200 359.2499 357.9470 7.2574 4.6860 354.1720 351.8510 13.0470 357.3010 3.5648 10.5690 6.9912 8.0830 12.1205 348.2135 344.0230 310.1212 
-17.8398 96.8191 175.9401 358.2381 356.3908 180.8116 357.1460 347.7555 359.9602 2.4898 12.0215 0.0040 356.0348 0.5072 359.7603 3.4465 7.1646 359.5276 340.1441 357.3770 14.8497 322.6619 61.4411 334.2855 8.5080 357.4234 326.3477 89.5030 355.5605 347.9742 26.3411 355.8804 342.5917 45.3606 51.3213 5.9521 340.3178 354.3612 31.7109 270.8226 354.1917 8.9829 355.5914 1.1442 359.1859 357.9348 7.2751 4.6804 354.2084 351.8176 13.0934 357.2637 3.4371 10.5042 7.0282 8.1958 12.1736 348.2034 343.9802 310.1132 
-17.8860 96.8139 175.9406 358.2441 356.3362 180.7985 357.1057 347.7734 359.9659 2.4937 12.0609 0.0146 356.0947 0.4647 359.7513 3.3574 7.3143 359.5210 340.1386 357.3962 14.8352 322.6583 61.3917 334.3113 8.4782 357.4247 326.3047 89.4444 355.5785 347.9024 26.3278 355.9028 342.6119 45.3508 51.2731 5.9647 340.4017 354.3788 31.7860 270.7950 354.2223 8.9977 355.5692 1.0823 359.1224 357.9223 7.2879 4.7427 354.3400 351.8223 13.0875 357.2262 3.3257 10.4368 7.0601 8.3042 12.2272 348.2237 343.9135 310.1229 
-17.9321 96.8081 175.9402 358.2568 356.2734 180.7878 357.0911 347.7768 359.9772 2.4647 12.1200 0.0252 356.2853 0.2984 359.7322 3.0564 7.6617 359.5209 340.1441 357.3761 14.8255 322.7448 61.3917 334.2330 8.5486 357.4174 326.3712 89.0103 355.4829 347.6766 26.3168 355.9183 342.6014 45.3118 51.3400 6.0658 340.3373 354.3667 31.7810 270.7969 354.1985 8.8584 355.5517 1.0080 359.0661 357.9146 7.3165 4.7507 354.2489 351.7850 13.1147 357.2000 3.2079 10.3855 7.0874 8.4079 12.2733 348.2021 343.8922 310.1103 
-17.9816 96.8013 175.9412 358.2711 356.2160 180.7767 357.0601 347.7903 359.9877 2.4665 12.1841 0.0405 357.2109 359.5573 359.7719 1.4989 9.0284 359.6710 340.1368 357.3892 14.8283 322.8431 61.3704 334.1376 8.4989 357.4291 326.3295 89.1135 355.4937 347.7239 26.2919 355.9017 342.5885 45.2470 51.4440 6.1660 340.2545 354.3418 31.7678 270.8580 354.2022 8.8346 355.5322 0.9395 359.0066 357.9067 7.3433 4.7535 354.0740 351.7395 13.1736 357.1694 3.0836 10.3422 7.1242 8.5337 12.3214 348.2179 343.8287 310.0977 
-18.0305 96.7925 175.9524 358.2876 356.1353 180.7706 357.0236 347.8044 359.9944 2.4764 12.2238 0.0467 357.0778 359.6388 359.7323 1.7565 8.9340 359.6033 340.1313 357.3752 14.8678 323.0832 61.4198 333.8677 8.5338 357.4203 326.3466 89.1798 355.4783 347.8452 26.2934 355.9069 342.5817 45.1463 51.4707 6.2360 340.2878 354.3329 31.8340 270.9730 354.2459 8.8584 355.5161 0.8392 358.9415 357.8947 7.3664 4.7853 354.4372 351.7524 13.1735 357.1397 2.9153 10.2694 7.1698 8.6934 12.3787 348.2231 343.7643 310.0903 
-18.0789 96.7854 175.9546 358.3017 356.0717 180.7512 356.9850 347.8197 0.0130 2.4830 12.2848 0.0675 356.4593 0.0983 359.6306 2.8512 8.1540 359.4253 340.1200 357.3903 14.8656 323.2340 61.4237 333.7304 8.5044 357.4249 326.3211 89.4026 355.4607 348.0120 26.2550 355.9199 342.6023 45.1987 51.4957 6.2547 340.2394 354.2926 31.8398 271.0327 354.1305 8.7132 355.4947 0.7613 358.8951 357.8906 7.3923 4.8218 354.4191 351.7186 13.1608 357.1101 2.7720 10.2370 7.2076 8.8385 12.4284 348.2140 343.7151 310.0734 
-18.1270 96.7736 175.9785 358.3200 355.9694 180.7489 356.9422 347.8344 0.0157 2.4943 12.3218 0.0728 357.3195 359.3743 359.6492 1.4147 9.4637 359.5514 340.1240 357.3940 14.8384 323.2718 61.3889 333.6954 8.5434 357.4235 326.2488 89.5761 355.5072 348.1465 26.2185 355.9246 342.5975 45.2033 51.5459 6.3374 340.1519 354.2739 31.8526 271.3862 353.8227 8.0379 355.4809 0.6154 358.8637 357.8799 7.4477 4.8120 354.2030 351.7000 13.1972 357.0858 2.5559 10.1371 7.2464 9.0295 12.4906 348.2062 343.6611 310.0827 
-18.1743 96.7629 175.9901 358.3481 355.8890 180.7394 356.9180 347.8517 0.0238 2.5028 12.3744 0.0833 357.3352 359.3721 359.6024 1.4127 9.5193 359.5029 340.1306 357.3874 14.8066 323.2096 61.3295 333.7314 8.5489 357.3965 326.1990 89.7103 355.5361 348.1689 26.2017 355.9291 342.6319 45.1940 51.5084 6.3547 340.1701 354.2932 31.8754 271.3266 353.8555 8.3501 355.4814 0.5136 358.8479 357.8608 7.4764 4.8198 354.5701 351.7281 13.1709 357.0740 2.3746 10.0980 7.2859 9.2035 12.5311 348.2145 343.5963 310.0679 
-18.2241 96.7566 175.9940 358.3698 355.8312 180.7116 356.8891 347.8784 0.0407 2.5055 12.4562 0.1045 357.3487 359.3484 359.5500 1.4258 9.5863 359.4431 340.1061 357.3772 14.8516 323.5492 61.3616 333.3943 8.5121 357.3979 326.1949 89.7831 355.5651 348.2907 26.1888 355.9565 342.6920 45.2097 51.4491 6.3526 340.2116 354.2960 31.9665 270.9501 354.1803 8.7629 355.4727 0.4434 358.8336 357.8445 7.4988 4.8304 354.5046 351.7122 13.1988 357.0607 2.1894 9.9195 7.3004 9.4562 12.7170 348.2128 343.5206 310.0508 
